<svg xmlns="http://www.w3.org/2000/svg" viewBox="0 0 1100 700" width="1100" height="700">
  <defs>
    <marker id="arr" markerWidth="8" markerHeight="6" refX="7" refY="3" orient="auto">
      <polygon points="0 0, 8 3, 0 6" fill="#888"/>
    </marker>
    <marker id="arr-start" markerWidth="8" markerHeight="6" refX="1" refY="3" orient="auto">
      <polygon points="8 0, 0 3, 8 6" fill="#888"/>
    </marker>
    <marker id="arr-dash" markerWidth="8" markerHeight="6" refX="7" refY="3" orient="auto">
      <polygon points="0 0, 8 3, 0 6" fill="#aaa"/>
    </marker>
    <marker id="arr-red" markerWidth="10" markerHeight="7" refX="9" refY="3.5" orient="auto">
      <polygon points="0 0, 10 3.5, 0 7" fill="#E74C3C"/>
    </marker>
  </defs>
  <rect width="1100" height="700" fill="#FFFFFF"/>
  <rect x="150" y="12" width="250" height="40" rx="5" fill="#9E9E9E"/>
  <text x="275" y="40" text-anchor="middle" font-family="Arial,sans-serif" font-size="15" font-weight="bold" fill="white">Discover</text>
  <rect x="400" y="12" width="250" height="40" rx="5" fill="#9E9E9E"/>
  <text x="525" y="40" text-anchor="middle" font-family="Arial,sans-serif" font-size="15" font-weight="bold" fill="white">Spec Authoring</text>
  <rect x="800" y="12" width="250" height="40" rx="5" fill="#9E9E9E"/>
  <text x="925" y="40" text-anchor="middle" font-family="Arial,sans-serif" font-size="15" font-weight="bold" fill="white">Validate</text>
  <line x1="0" y1="65" x2="1100" y2="65" stroke="#BDBDBD" stroke-width="1.5" stroke-dasharray="8,5"/>
  <line x1="0" y1="200" x2="1100" y2="200" stroke="#BDBDBD" stroke-width="1.5" stroke-dasharray="8,5"/>
  <line x1="0" y1="410" x2="1100" y2="410" stroke="#BDBDBD" stroke-width="1.5" stroke-dasharray="8,5"/>
  <line x1="0" y1="660" x2="1100" y2="660" stroke="#BDBDBD" stroke-width="1.5" stroke-dasharray="8,5"/>
  <rect x="40" y="117" width="68" height="26" rx="4" fill="#4A90D9"/>
  <text x="74" y="133" text-anchor="middle" font-family="Arial,sans-serif" font-size="11" font-weight="bold" fill="white">Maker</text>
  <rect x="40" y="292" width="68" height="26" rx="4" fill="#757575"/>
  <text x="74" y="308" text-anchor="middle" font-family="Arial,sans-serif" font-size="11" font-weight="bold" fill="white">Artifacts</text>
  <rect x="40" y="522" width="68" height="26" rx="4" fill="#27AE60"/>
  <text x="74" y="538" text-anchor="middle" font-family="Arial,sans-serif" font-size="11" font-weight="bold" fill="white">Agent</text>
  <rect x="160" y="100" width="150" height="45" rx="6" fill="#D6EAF8" stroke="#bbb" stroke-width="1"/>
  <text x="235" y="126" text-anchor="middle" font-family="Arial,sans-serif" font-size="12" font-weight="bold" fill="#2C3E50">Vision, Goals</text>
  <text x="235" y="139" text-anchor="middle" font-family="Arial,sans-serif" font-size="9" fill="#555">intent + constraints</text>
  <rect x="390" y="100" width="110" height="45" rx="6" fill="#D6EAF8" stroke="#bbb" stroke-width="1"/>
  <text x="445" y="126" text-anchor="middle" font-family="Arial,sans-serif" font-size="12" font-weight="bold" fill="#2C3E50">Review</text>
  <text x="445" y="139" text-anchor="middle" font-family="Arial,sans-serif" font-size="9" fill="#555">specs + tests</text>
  <polygon points="564,98 588,122 564,146 540,122" fill="#B3D4FC" stroke="#999" stroke-width="1"/>
  <text x="564" y="126" text-anchor="middle" font-family="Arial,sans-serif" font-size="10" font-weight="bold" fill="#2C3E50">Ready?</text>
  <rect x="610" y="112" width="34" height="18" rx="9" fill="#D5F5E3" stroke="#27AE60" stroke-width="1"/>
  <text x="627" y="125" text-anchor="middle" font-family="Arial,sans-serif" font-size="10" font-weight="bold" fill="#27AE60">Yes</text>
  <rect x="670" y="100" width="130" height="45" rx="6" fill="#D6EAF8" stroke="#bbb" stroke-width="1"/>
  <text x="735" y="126" text-anchor="middle" font-family="Arial,sans-serif" font-size="12" font-weight="bold" fill="#2C3E50">Approve</text>
  <text x="735" y="139" text-anchor="middle" font-family="Arial,sans-serif" font-size="9" fill="#555">commit to spec/*</text>
  <line x1="315" y1="122" x2="370" y2="122" stroke="#888" stroke-width="1.5" marker-end="url(#arr)"/>
  <line x1="505" y1="122" x2="530" y2="122" stroke="#888" stroke-width="1.5" marker-end="url(#arr)"/>
  <line x1="590" y1="122" x2="608" y2="122" stroke="#888" stroke-width="1.5" marker-end="url(#arr)"/>
  <line x1="642" y1="122" x2="660" y2="122" stroke="#888" stroke-width="1.5" marker-end="url(#arr)"/>
  <line x1="805" y1="122" x2="835" y2="122" stroke="#888" stroke-width="1.5" marker-end="url(#arr)"/>
  <text x="843" y="126" font-family="Arial,sans-serif" font-size="10" fill="#666">→ Phase 2</text>
  <rect x="555" y="158" width="34" height="18" rx="9" fill="#FDEDEC" stroke="#E74C3C" stroke-width="1"/>
  <text x="572" y="171" text-anchor="middle" font-family="Arial,sans-serif" font-size="10" font-weight="bold" fill="#E74C3C">No</text>
  <path d="M 564,166 L 564,180 L 140,180 L 140,532 L 158,532" fill="none" stroke="#E74C3C" stroke-width="2" marker-end="url(#arr-red)"/>
  <text x="300" y="176" font-family="Arial,sans-serif" font-size="9" fill="#E74C3C">Feedback / Clarifications</text>
  <rect x="160" y="230" width="150" height="80" rx="4" fill="white" stroke="#aaa" stroke-width="1"/>
  <text x="235" y="245" text-anchor="middle" font-family="Arial,sans-serif" font-size="10" font-weight="bold" fill="#2C3E50">Spec Chain</text>
  <line x1="165" y1="250" x2="305" y2="250" stroke="#ddd" stroke-width="1"/>
  <text x="167" y="263" font-family="Arial,sans-serif" font-size="9" fill="#555">outcome.md (WHY)</text>
  <text x="167" y="276" font-family="Arial,sans-serif" font-size="9" fill="#555">invariants.md (INV-N)</text>
  <text x="167" y="289" font-family="Arial,sans-serif" font-size="9" fill="#555">product-spec.md</text>
  <text x="167" y="302" font-family="Arial,sans-serif" font-size="9" fill="#555">glossary.md</text>
  <rect x="390" y="230" width="150" height="65" rx="4" fill="white" stroke="#aaa" stroke-width="1"/>
  <text x="465" y="245" text-anchor="middle" font-family="Arial,sans-serif" font-size="10" font-weight="bold" fill="#2C3E50">Technical Specs</text>
  <line x1="395" y1="250" x2="535" y2="250" stroke="#ddd" stroke-width="1"/>
  <text x="397" y="263" font-family="Arial,sans-serif" font-size="9" fill="#555">tech-spec.md</text>
  <text x="397" y="276" font-family="Arial,sans-serif" font-size="9" fill="#555">api-contract.yaml</text>
  <text x="397" y="289" font-family="Arial,sans-serif" font-size="9" fill="#555">failure-modes.md</text>
  <rect x="620" y="230" width="150" height="65" rx="4" fill="white" stroke="#aaa" stroke-width="1"/>
  <text x="695" y="245" text-anchor="middle" font-family="Arial,sans-serif" font-size="10" font-weight="bold" fill="#2C3E50">Quality Specs</text>
  <line x1="625" y1="250" x2="765" y2="250" stroke="#ddd" stroke-width="1"/>
  <text x="627" y="263" font-family="Arial,sans-serif" font-size="9" fill="#555">acceptance-tests.md</text>
  <text x="627" y="276" font-family="Arial,sans-serif" font-size="9" fill="#555">SC-1, SC-2... (scenarios)</text>
  <text x="627" y="289" font-family="Arial,sans-serif" font-size="9" fill="#555">Each INV → scenario</text>
  <rect x="850" y="230" width="150" height="80" rx="4" fill="white" stroke="#aaa" stroke-width="1"/>
  <text x="925" y="245" text-anchor="middle" font-family="Arial,sans-serif" font-size="10" font-weight="bold" fill="#2C3E50">Enforcement (per INV-N)</text>
  <line x1="855" y1="250" x2="995" y2="250" stroke="#ddd" stroke-width="1"/>
  <text x="857" y="263" font-family="Arial,sans-serif" font-size="9" fill="#555">🧪 Property test</text>
  <text x="857" y="276" font-family="Arial,sans-serif" font-size="9" fill="#555">🗄️ DB constraint</text>
  <text x="857" y="289" font-family="Arial,sans-serif" font-size="9" fill="#555">⚡ Runtime assertion</text>
  <text x="857" y="302" font-family="Arial,sans-serif" font-size="9" fill="#555">📊 Monitor / alert</text>
  <line x1="315" y1="265" x2="370" y2="265" stroke="#aaa" stroke-width="1" stroke-dasharray="5,4" marker-end="url(#arr-dash)"/>
  <line x1="545" y1="265" x2="600" y2="265" stroke="#aaa" stroke-width="1" stroke-dasharray="5,4" marker-end="url(#arr-dash)"/>
  <line x1="775" y1="265" x2="830" y2="265" stroke="#aaa" stroke-width="1" stroke-dasharray="5,4" marker-end="url(#arr-dash)"/>
  <line x1="465" y1="225" x2="465" y2="150" stroke="#888" stroke-width="1.5" marker-start="url(#arr-start)" marker-end="url(#arr)"/>
  <rect x="850" y="340" width="160" height="57" rx="5" fill="#EAFAF1" stroke="#1E8449" stroke-width="1"/>
  <text x="857" y="354" font-family="Arial,sans-serif" font-size="10" font-weight="bold" fill="#1E8449">🔒 CI: spec-lint</text>
  <text x="857" y="368" font-family="Arial,sans-serif" font-size="9" fill="#1E8449">✗ Missing sections / metrics</text>
  <text x="857" y="381" font-family="Arial,sans-serif" font-size="9" fill="#1E8449">✗ Invariant without ID</text>
  <text x="857" y="394" font-family="Arial,sans-serif" font-size="9" fill="#1E8449">✗ Contract before code</text>
  <rect x="160" y="510" width="140" height="45" rx="6" fill="#C8E6C9" stroke="#bbb" stroke-width="1"/>
  <text x="230" y="536" text-anchor="middle" font-family="Arial,sans-serif" font-size="12" font-weight="bold" fill="#2C3E50">Interview</text>
  <text x="230" y="549" text-anchor="middle" font-family="Arial,sans-serif" font-size="9" fill="#555">structured Qs</text>
  <rect x="390" y="510" width="140" height="45" rx="6" fill="#C8E6C9" stroke="#bbb" stroke-width="1"/>
  <text x="460" y="536" text-anchor="middle" font-family="Arial,sans-serif" font-size="12" font-weight="bold" fill="#2C3E50">Draft Specs</text>
  <text x="460" y="549" text-anchor="middle" font-family="Arial,sans-serif" font-size="9" fill="#555">from interview</text>
  <rect x="620" y="510" width="140" height="45" rx="6" fill="#C8E6C9" stroke="#bbb" stroke-width="1"/>
  <text x="690" y="536" text-anchor="middle" font-family="Arial,sans-serif" font-size="12" font-weight="bold" fill="#2C3E50">Derive Tests</text>
  <text x="690" y="549" text-anchor="middle" font-family="Arial,sans-serif" font-size="9" fill="#555">from invariants</text>
  <rect x="850" y="510" width="140" height="45" rx="6" fill="#C8E6C9" stroke="#bbb" stroke-width="1"/>
  <text x="920" y="536" text-anchor="middle" font-family="Arial,sans-serif" font-size="12" font-weight="bold" fill="#2C3E50">Validate</text>
  <text x="920" y="549" text-anchor="middle" font-family="Arial,sans-serif" font-size="9" fill="#555">spec-lint</text>
  <line x1="305" y1="532" x2="370" y2="532" stroke="#888" stroke-width="1.5" marker-end="url(#arr)"/>
  <line x1="535" y1="532" x2="600" y2="532" stroke="#888" stroke-width="1.5" marker-end="url(#arr)"/>
  <line x1="765" y1="532" x2="830" y2="532" stroke="#888" stroke-width="1.5" marker-end="url(#arr)"/>
  <line x1="230" y1="502" x2="230" y2="325" stroke="#888" stroke-width="1.5" marker-start="url(#arr-start)" marker-end="url(#arr)"/>
  <line x1="460" y1="502" x2="460" y2="325" stroke="#888" stroke-width="1.5" marker-start="url(#arr-start)" marker-end="url(#arr)"/>
  <line x1="690" y1="502" x2="690" y2="325" stroke="#888" stroke-width="1.5" marker-start="url(#arr-start)" marker-end="url(#arr)"/>
  <line x1="920" y1="502" x2="920" y2="415" stroke="#888" stroke-width="1.5" marker-start="url(#arr-start)" marker-end="url(#arr)"/>
  <rect x="850" y="500" width="220" height="88" rx="5" fill="#FDEDEC" stroke="#E74C3C" stroke-width="1"/>
  <text x="857" y="514" font-family="Arial,sans-serif" font-size="10" font-weight="bold" fill="#C0392B">❌ Anti-Patterns</text>
  <text x="857" y="530" font-family="Arial,sans-serif" font-size="9" fill="#C0392B">• Specs after implementation</text>
  <text x="857" y="544" font-family="Arial,sans-serif" font-size="9" fill="#C0392B">• Agent generates specs from code</text>
  <text x="857" y="558" font-family="Arial,sans-serif" font-size="9" fill="#C0392B">• Implementation details in specs</text>
  <text x="857" y="572" font-family="Arial,sans-serif" font-size="9" fill="#C0392B">• Skipping spec for small changes</text>
  <text x="857" y="586" font-family="Arial,sans-serif" font-size="9" fill="#C0392B">• Business logic in prompts</text>
  <text x="100" y="682" font-family="Arial,sans-serif" font-size="10" fill="#999">🔵 Maker    🟢 Agent    ⬜ Artifacts    🔷 Decision    ─ ─ → derives    🔴 Feedback</text>
</svg>