<svg xmlns="http://www.w3.org/2000/svg" viewBox="0 0 1100 700" width="1100" height="700">
  <defs>
    <marker id="arr" markerWidth="8" markerHeight="6" refX="7" refY="3" orient="auto">
      <polygon points="0 0, 8 3, 0 6" fill="#888"/>
    </marker>
    <marker id="arr-start" markerWidth="8" markerHeight="6" refX="1" refY="3" orient="auto">
      <polygon points="8 0, 0 3, 8 6" fill="#888"/>
    </marker>
    <marker id="arr-dash" markerWidth="8" markerHeight="6" refX="7" refY="3" orient="auto">
      <polygon points="0 0, 8 3, 0 6" fill="#aaa"/>
    </marker>
    <marker id="arr-red" markerWidth="10" markerHeight="7" refX="9" refY="3.5" orient="auto">
      <polygon points="0 0, 10 3.5, 0 7" fill="#E74C3C"/>
    </marker>
  </defs>
  <rect width="1100" height="700" fill="#FFFFFF"/>
  <rect x="150" y="12" width="250" height="40" rx="5" fill="#9E9E9E"/>
  <text x="275" y="40" text-anchor="middle" font-family="Arial,sans-serif" font-size="15" font-weight="bold" fill="white">Commit</text>
  <rect x="400" y="12" width="240" height="40" rx="5" fill="#9E9E9E"/>
  <text x="520" y="40" text-anchor="middle" font-family="Arial,sans-serif" font-size="15" font-weight="bold" fill="white">Review</text>
  <rect x="820" y="12" width="220" height="40" rx="5" fill="#9E9E9E"/>
  <text x="930" y="40" text-anchor="middle" font-family="Arial,sans-serif" font-size="15" font-weight="bold" fill="white">Merge</text>
  <line x1="0" y1="65" x2="1100" y2="65" stroke="#BDBDBD" stroke-width="1.5" stroke-dasharray="8,5"/>
  <line x1="0" y1="200" x2="1100" y2="200" stroke="#BDBDBD" stroke-width="1.5" stroke-dasharray="8,5"/>
  <line x1="0" y1="410" x2="1100" y2="410" stroke="#BDBDBD" stroke-width="1.5" stroke-dasharray="8,5"/>
  <line x1="0" y1="660" x2="1100" y2="660" stroke="#BDBDBD" stroke-width="1.5" stroke-dasharray="8,5"/>
  <rect x="40" y="117" width="68" height="26" rx="4" fill="#4A90D9"/>
  <text x="74" y="133" text-anchor="middle" font-family="Arial,sans-serif" font-size="11" font-weight="bold" fill="white">Maker</text>
  <rect x="40" y="292" width="68" height="26" rx="4" fill="#757575"/>
  <text x="74" y="308" text-anchor="middle" font-family="Arial,sans-serif" font-size="11" font-weight="bold" fill="white">Artifacts</text>
  <rect x="40" y="522" width="68" height="26" rx="4" fill="#27AE60"/>
  <text x="74" y="538" text-anchor="middle" font-family="Arial,sans-serif" font-size="11" font-weight="bold" fill="white">Agent</text>
  <rect x="160" y="100" width="150" height="45" rx="6" fill="#D6EAF8" stroke="#bbb" stroke-width="1"/>
  <text x="235" y="126" text-anchor="middle" font-family="Arial,sans-serif" font-size="12" font-weight="bold" fill="#2C3E50">Review PR</text>
  <text x="235" y="139" text-anchor="middle" font-family="Arial,sans-serif" font-size="9" fill="#555">read narrative</text>
  <rect x="390" y="100" width="150" height="45" rx="6" fill="#D6EAF8" stroke="#bbb" stroke-width="1"/>
  <text x="465" y="126" text-anchor="middle" font-family="Arial,sans-serif" font-size="12" font-weight="bold" fill="#2C3E50">Check Dep Graph</text>
  <text x="465" y="139" text-anchor="middle" font-family="Arial,sans-serif" font-size="9" fill="#555">visual diff</text>
  <polygon points="644,98 668,122 644,146 620,122" fill="#B3D4FC" stroke="#999" stroke-width="1"/>
  <text x="644" y="126" text-anchor="middle" font-family="Arial,sans-serif" font-size="10" font-weight="bold" fill="#2C3E50">Small?</text>
  <rect x="695" y="112" width="34" height="18" rx="9" fill="#D5F5E3" stroke="#27AE60" stroke-width="1"/>
  <text x="712" y="125" text-anchor="middle" font-family="Arial,sans-serif" font-size="10" font-weight="bold" fill="#27AE60">Yes</text>
  <rect x="850" y="100" width="150" height="45" rx="6" fill="#D6EAF8" stroke="#bbb" stroke-width="1"/>
  <text x="925" y="126" text-anchor="middle" font-family="Arial,sans-serif" font-size="12" font-weight="bold" fill="#2C3E50">Merge</text>
  <text x="925" y="139" text-anchor="middle" font-family="Arial,sans-serif" font-size="9" fill="#555">approved</text>
  <line x1="315" y1="122" x2="370" y2="122" stroke="#888" stroke-width="1.5" marker-end="url(#arr)"/>
  <line x1="545" y1="122" x2="600" y2="122" stroke="#888" stroke-width="1.5" marker-end="url(#arr)"/>
  <line x1="670" y1="122" x2="693" y2="122" stroke="#888" stroke-width="1.5" marker-end="url(#arr)"/>
  <line x1="727" y1="122" x2="830" y2="122" stroke="#888" stroke-width="1.5" marker-end="url(#arr)"/>
  <rect x="629" y="158" width="34" height="18" rx="9" fill="#FDEDEC" stroke="#E74C3C" stroke-width="1"/>
  <text x="646" y="171" text-anchor="middle" font-family="Arial,sans-serif" font-size="10" font-weight="bold" fill="#E74C3C">No</text>
  <path d="M 644,148 L 644,180 L 145,180 L 145,532 L 155,532" fill="none" stroke="#E74C3C" stroke-width="2" marker-end="url(#arr-red)"/>
  <text x="300" y="176" font-family="Arial,sans-serif" font-size="9" fill="#E74C3C">Split PR (too large)</text>
  <rect x="160" y="230" width="150" height="80" rx="4" fill="white" stroke="#aaa" stroke-width="1"/>
  <text x="235" y="245" text-anchor="middle" font-family="Arial,sans-serif" font-size="10" font-weight="bold" fill="#2C3E50">Commit</text>
  <line x1="165" y1="250" x2="305" y2="250" stroke="#ddd" stroke-width="1"/>
  <text x="167" y="263" font-family="Arial,sans-serif" font-size="9" fill="#555">spec ref in message</text>
  <text x="167" y="276" font-family="Arial,sans-serif" font-size="9" fill="#555">1 concern per commit</text>
  <text x="167" y="289" font-family="Arial,sans-serif" font-size="9" fill="#555">Codebase passes after each</text>
  <rect x="390" y="230" width="150" height="65" rx="4" fill="white" stroke="#aaa" stroke-width="1"/>
  <text x="465" y="245" text-anchor="middle" font-family="Arial,sans-serif" font-size="10" font-weight="bold" fill="#2C3E50">PR (&lt;400 lines)</text>
  <line x1="395" y1="250" x2="535" y2="250" stroke="#ddd" stroke-width="1"/>
  <text x="397" y="263" font-family="Arial,sans-serif" font-size="9" fill="#555">Maps to 1 spec scenario</text>
  <text x="397" y="276" font-family="Arial,sans-serif" font-size="9" fill="#555">Auto-generated description</text>
  <text x="397" y="289" font-family="Arial,sans-serif" font-size="9" fill="#555">Spec link in body</text>
  <rect x="620" y="230" width="150" height="80" rx="4" fill="white" stroke="#aaa" stroke-width="1"/>
  <text x="695" y="245" text-anchor="middle" font-family="Arial,sans-serif" font-size="10" font-weight="bold" fill="#2C3E50">Dep Graph Diff</text>
  <line x1="625" y1="250" x2="765" y2="250" stroke="#ddd" stroke-width="1"/>
  <text x="627" y="263" font-family="Arial,sans-serif" font-size="9" fill="#555">Before/after visualization</text>
  <text x="627" y="276" font-family="Arial,sans-serif" font-size="9" fill="#555">New deps highlighted</text>
  <text x="627" y="289" font-family="Arial,sans-serif" font-size="9" fill="#555">Posted as PR comment</text>
  <rect x="850" y="230" width="150" height="65" rx="4" fill="white" stroke="#aaa" stroke-width="1"/>
  <text x="925" y="245" text-anchor="middle" font-family="Arial,sans-serif" font-size="10" font-weight="bold" fill="#2C3E50">CHANGELOG.md</text>
  <line x1="855" y1="250" x2="995" y2="250" stroke="#ddd" stroke-width="1"/>
  <text x="857" y="263" font-family="Arial,sans-serif" font-size="9" fill="#555">Auto-generated from commits</text>
  <text x="857" y="276" font-family="Arial,sans-serif" font-size="9" fill="#555">Grouped by spec/feature</text>
  <text x="857" y="289" font-family="Arial,sans-serif" font-size="9" fill="#555">Links to PRs</text>
  <line x1="315" y1="265" x2="370" y2="265" stroke="#aaa" stroke-width="1" stroke-dasharray="5,4" marker-end="url(#arr-dash)"/>
  <line x1="545" y1="265" x2="600" y2="265" stroke="#aaa" stroke-width="1" stroke-dasharray="5,4" marker-end="url(#arr-dash)"/>
  <line x1="775" y1="265" x2="830" y2="265" stroke="#aaa" stroke-width="1" stroke-dasharray="5,4" marker-end="url(#arr-dash)"/>
  <line x1="235" y1="225" x2="235" y2="150" stroke="#888" stroke-width="1.5" marker-start="url(#arr-start)" marker-end="url(#arr)"/>
  <line x1="465" y1="225" x2="465" y2="150" stroke="#888" stroke-width="1.5" marker-start="url(#arr-start)" marker-end="url(#arr)"/>
  <rect x="850" y="325" width="160" height="70" rx="5" fill="#EAFAF1" stroke="#1E8449" stroke-width="1"/>
  <text x="857" y="339" font-family="Arial,sans-serif" font-size="10" font-weight="bold" fill="#1E8449">🔒 CI Checks</text>
  <text x="857" y="353" font-family="Arial,sans-serif" font-size="9" fill="#1E8449">• commitlint (format)</text>
  <text x="857" y="366" font-family="Arial,sans-serif" font-size="9" fill="#1E8449">• PR size check (&lt;400 lines)</text>
  <text x="857" y="379" font-family="Arial,sans-serif" font-size="9" fill="#1E8449">• dep graph diff (auto-post)</text>
  <text x="857" y="392" font-family="Arial,sans-serif" font-size="9" fill="#1E8449">• import-linter (layers)</text>
  <rect x="160" y="510" width="140" height="45" rx="6" fill="#C8E6C9" stroke="#bbb" stroke-width="1"/>
  <text x="230" y="536" text-anchor="middle" font-family="Arial,sans-serif" font-size="12" font-weight="bold" fill="#2C3E50">Atomic Commit</text>
  <text x="230" y="549" text-anchor="middle" font-family="Arial,sans-serif" font-size="9" fill="#555">per logical step</text>
  <rect x="390" y="510" width="140" height="45" rx="6" fill="#C8E6C9" stroke="#bbb" stroke-width="1"/>
  <text x="460" y="536" text-anchor="middle" font-family="Arial,sans-serif" font-size="12" font-weight="bold" fill="#2C3E50">Push</text>
  <text x="460" y="549" text-anchor="middle" font-family="Arial,sans-serif" font-size="9" fill="#555">branch per session</text>
  <rect x="620" y="510" width="140" height="45" rx="6" fill="#C8E6C9" stroke="#bbb" stroke-width="1"/>
  <text x="690" y="536" text-anchor="middle" font-family="Arial,sans-serif" font-size="12" font-weight="bold" fill="#2C3E50">Gen PR Desc</text>
  <text x="690" y="549" text-anchor="middle" font-family="Arial,sans-serif" font-size="9" fill="#555">narrative from commits</text>
  <rect x="850" y="510" width="140" height="45" rx="6" fill="#C8E6C9" stroke="#bbb" stroke-width="1"/>
  <text x="920" y="536" text-anchor="middle" font-family="Arial,sans-serif" font-size="12" font-weight="bold" fill="#2C3E50">Gen Dep Diff</text>
  <text x="920" y="549" text-anchor="middle" font-family="Arial,sans-serif" font-size="9" fill="#555">codegraph MCP</text>
  <line x1="305" y1="532" x2="370" y2="532" stroke="#888" stroke-width="1.5" marker-end="url(#arr)"/>
  <line x1="535" y1="532" x2="600" y2="532" stroke="#888" stroke-width="1.5" marker-end="url(#arr)"/>
  <line x1="765" y1="532" x2="830" y2="532" stroke="#888" stroke-width="1.5" marker-end="url(#arr)"/>
  <line x1="230" y1="505" x2="230" y2="325" stroke="#888" stroke-width="1.5" marker-start="url(#arr-start)" marker-end="url(#arr)"/>
  <line x1="460" y1="505" x2="460" y2="310" stroke="#888" stroke-width="1.5" marker-start="url(#arr-start)" marker-end="url(#arr)"/>
  <line x1="690" y1="505" x2="690" y2="325" stroke="#888" stroke-width="1.5" marker-start="url(#arr-start)" marker-end="url(#arr)"/>
  <rect x="620" y="420" width="220" height="74" rx="5" fill="#FDEDEC" stroke="#E74C3C" stroke-width="1"/>
  <text x="627" y="434" font-family="Arial,sans-serif" font-size="10" font-weight="bold" fill="#C0392B">❌ Anti-Patterns</text>
  <text x="627" y="450" font-family="Arial,sans-serif" font-size="9" fill="#C0392B">• Giant commits (WIP: everything)</text>
  <text x="627" y="464" font-family="Arial,sans-serif" font-size="9" fill="#C0392B">• 1000+ line PRs nobody reviews</text>
  <text x="627" y="478" font-family="Arial,sans-serif" font-size="9" fill="#C0392B">• No spec refs in commit msgs</text>
  <text x="627" y="492" font-family="Arial,sans-serif" font-size="9" fill="#C0392B">• Never looking at dep graphs</text>
  <text x="100" y="682" font-family="Arial,sans-serif" font-size="10" fill="#999">🔵 Maker    🟢 Agent    ⬜ Artifacts    🔷 Decision    ─ ─ → derives    🔴 Feedback</text>
</svg>