<svg xmlns="http://www.w3.org/2000/svg" viewBox="0 0 1100 700" width="1100" height="700">
  <defs>
    <marker id="arr" markerWidth="8" markerHeight="6" refX="7" refY="3" orient="auto">
      <polygon points="0 0, 8 3, 0 6" fill="#888"/>
    </marker>
    <marker id="arr-start" markerWidth="8" markerHeight="6" refX="1" refY="3" orient="auto">
      <polygon points="8 0, 0 3, 8 6" fill="#888"/>
    </marker>
    <marker id="arr-dash" markerWidth="8" markerHeight="6" refX="7" refY="3" orient="auto">
      <polygon points="0 0, 8 3, 0 6" fill="#aaa"/>
    </marker>
    <marker id="arr-red" markerWidth="10" markerHeight="7" refX="9" refY="3.5" orient="auto">
      <polygon points="0 0, 10 3.5, 0 7" fill="#E74C3C"/>
    </marker>
  </defs>
  <rect width="1100" height="700" fill="#FFFFFF"/>
  <rect x="150" y="12" width="250" height="40" rx="5" fill="#9E9E9E"/>
  <text x="275" y="40" text-anchor="middle" font-family="Arial,sans-serif" font-size="15" font-weight="bold" fill="white">Session Start</text>
  <rect x="400" y="12" width="250" height="40" rx="5" fill="#9E9E9E"/>
  <text x="525" y="40" text-anchor="middle" font-family="Arial,sans-serif" font-size="15" font-weight="bold" fill="white">Execution</text>
  <rect x="800" y="12" width="250" height="40" rx="5" fill="#9E9E9E"/>
  <text x="925" y="40" text-anchor="middle" font-family="Arial,sans-serif" font-size="15" font-weight="bold" fill="white">Session End</text>
  <line x1="0" y1="65" x2="1100" y2="65" stroke="#BDBDBD" stroke-width="1.5" stroke-dasharray="8,5"/>
  <line x1="0" y1="200" x2="1100" y2="200" stroke="#BDBDBD" stroke-width="1.5" stroke-dasharray="8,5"/>
  <line x1="0" y1="410" x2="1100" y2="410" stroke="#BDBDBD" stroke-width="1.5" stroke-dasharray="8,5"/>
  <line x1="0" y1="660" x2="1100" y2="660" stroke="#BDBDBD" stroke-width="1.5" stroke-dasharray="8,5"/>
  <rect x="40" y="117" width="68" height="26" rx="4" fill="#4A90D9"/>
  <text x="74" y="133" text-anchor="middle" font-family="Arial,sans-serif" font-size="11" font-weight="bold" fill="white">Maker</text>
  <rect x="40" y="292" width="68" height="26" rx="4" fill="#757575"/>
  <text x="74" y="308" text-anchor="middle" font-family="Arial,sans-serif" font-size="11" font-weight="bold" fill="white">Artifacts</text>
  <rect x="40" y="522" width="68" height="26" rx="4" fill="#27AE60"/>
  <text x="74" y="538" text-anchor="middle" font-family="Arial,sans-serif" font-size="11" font-weight="bold" fill="white">Agent</text>
  <rect x="160" y="100" width="150" height="45" rx="6" fill="#D6EAF8" stroke="#bbb" stroke-width="1"/>
  <text x="235" y="126" text-anchor="middle" font-family="Arial,sans-serif" font-size="12" font-weight="bold" fill="#2C3E50">/start</text>
  <text x="235" y="139" text-anchor="middle" font-family="Arial,sans-serif" font-size="9" fill="#555">idempotent preflight</text>
  <rect x="390" y="100" width="150" height="45" rx="6" fill="#D6EAF8" stroke="#bbb" stroke-width="1"/>
  <text x="465" y="126" text-anchor="middle" font-family="Arial,sans-serif" font-size="12" font-weight="bold" fill="#2C3E50">Provide Context</text>
  <text x="465" y="139" text-anchor="middle" font-family="Arial,sans-serif" font-size="9" fill="#555">task + constraints</text>
  <polygon points="644,98 668,122 644,146 620,122" fill="#B3D4FC" stroke="#999" stroke-width="1"/>
  <text x="644" y="126" text-anchor="middle" font-family="Arial,sans-serif" font-size="10" font-weight="bold" fill="#2C3E50">Healthy?</text>
  <rect x="850" y="100" width="150" height="45" rx="6" fill="#D6EAF8" stroke="#bbb" stroke-width="1"/>
  <text x="925" y="126" text-anchor="middle" font-family="Arial,sans-serif" font-size="12" font-weight="bold" fill="#2C3E50">/end</text>
  <text x="925" y="139" text-anchor="middle" font-family="Arial,sans-serif" font-size="9" fill="#555">session summary</text>
  <line x1="315" y1="122" x2="370" y2="122" stroke="#888" stroke-width="1.5" marker-end="url(#arr)"/>
  <line x1="545" y1="122" x2="600" y2="122" stroke="#888" stroke-width="1.5" marker-end="url(#arr)"/>
  <rect x="695" y="112" width="34" height="18" rx="9" fill="#D5F5E3" stroke="#27AE60" stroke-width="1"/>
  <text x="712" y="125" text-anchor="middle" font-family="Arial,sans-serif" font-size="10" font-weight="bold" fill="#27AE60">Yes</text>
  <line x1="670" y1="122" x2="693" y2="122" stroke="#888" stroke-width="1.5" marker-end="url(#arr)"/>
  <line x1="729" y1="122" x2="830" y2="122" stroke="#888" stroke-width="1.5" marker-end="url(#arr)"/>
  <rect x="629" y="158" width="34" height="18" rx="9" fill="#FDEDEC" stroke="#E74C3C" stroke-width="1"/>
  <text x="646" y="171" text-anchor="middle" font-family="Arial,sans-serif" font-size="10" font-weight="bold" fill="#E74C3C">No</text>
  <path d="M 644,148 L 644,175 L 145,175 L 145,532 L 155,532" fill="none" stroke="#E74C3C" stroke-width="2" marker-end="url(#arr-red)"/>
  <text x="300" y="171" font-family="Arial,sans-serif" font-size="9" fill="#E74C3C">context degraded → end session → fresh start</text>
  <rect x="160" y="230" width="150" height="75" rx="4" fill="white" stroke="#aaa" stroke-width="1"/>
  <text x="235" y="245" text-anchor="middle" font-family="Arial,sans-serif" font-size="10" font-weight="bold" fill="#2C3E50">AGENTS.md</text>
  <line x1="165" y1="250" x2="305" y2="250" stroke="#ddd" stroke-width="1"/>
  <text x="167" y="263" font-family="Arial,sans-serif" font-size="9" fill="#555">Map &amp; pointers only</text>
  <text x="167" y="276" font-family="Arial,sans-serif" font-size="9" fill="#555">→ specs/, skills/, steering/</text>
  <text x="167" y="289" font-family="Arial,sans-serif" font-size="9" fill="#555">Never full content</text>
  <rect x="390" y="230" width="160" height="75" rx="4" fill="white" stroke="#aaa" stroke-width="1"/>
  <text x="470" y="245" text-anchor="middle" font-family="Arial,sans-serif" font-size="10" font-weight="bold" fill="#2C3E50">Steering Files</text>
  <line x1="395" y1="250" x2="545" y2="250" stroke="#ddd" stroke-width="1"/>
  <text x="397" y="263" font-family="Arial,sans-serif" font-size="9" fill="#555">.kiro/steering/*.md</text>
  <text x="397" y="276" font-family="Arial,sans-serif" font-size="9" fill="#555">Stack, conventions, context</text>
  <text x="397" y="289" font-family="Arial,sans-serif" font-size="9" fill="#555">Loaded once per session</text>
  <rect x="620" y="230" width="160" height="75" rx="4" fill="white" stroke="#aaa" stroke-width="1"/>
  <text x="700" y="245" text-anchor="middle" font-family="Arial,sans-serif" font-size="10" font-weight="bold" fill="#2C3E50">session-notes/latest.md</text>
  <line x1="625" y1="250" x2="775" y2="250" stroke="#ddd" stroke-width="1"/>
  <text x="627" y="263" font-family="Arial,sans-serif" font-size="9" fill="#555">What happened last</text>
  <text x="627" y="276" font-family="Arial,sans-serif" font-size="9" fill="#555">Decisions made</text>
  <text x="627" y="289" font-family="Arial,sans-serif" font-size="9" fill="#555">Handoff notes</text>
  <rect x="850" y="230" width="150" height="75" rx="4" fill="white" stroke="#aaa" stroke-width="1"/>
  <text x="925" y="245" text-anchor="middle" font-family="Arial,sans-serif" font-size="10" font-weight="bold" fill="#2C3E50">TODO.md</text>
  <line x1="855" y1="250" x2="995" y2="250" stroke="#ddd" stroke-width="1"/>
  <text x="857" y="263" font-family="Arial,sans-serif" font-size="9" fill="#555">Pending tasks</text>
  <text x="857" y="276" font-family="Arial,sans-serif" font-size="9" fill="#555">Updated at /end</text>
  <text x="857" y="289" font-family="Arial,sans-serif" font-size="9" fill="#555">Read at /start</text>
  <line x1="330" y1="265" x2="370" y2="265" stroke="#aaa" stroke-width="1" stroke-dasharray="5,4" marker-end="url(#arr-dash)"/>
  <line x1="570" y1="265" x2="600" y2="265" stroke="#aaa" stroke-width="1" stroke-dasharray="5,4" marker-end="url(#arr-dash)"/>
  <line x1="800" y1="265" x2="830" y2="265" stroke="#aaa" stroke-width="1" stroke-dasharray="5,4" marker-end="url(#arr-dash)"/>
  <line x1="235" y1="225" x2="235" y2="150" stroke="#888" stroke-width="1.5" marker-start="url(#arr-start)" marker-end="url(#arr)"/>
  <rect x="160" y="510" width="140" height="45" rx="6" fill="#C8E6C9" stroke="#bbb" stroke-width="1"/>
  <text x="230" y="536" text-anchor="middle" font-family="Arial,sans-serif" font-size="12" font-weight="bold" fill="#2C3E50">Load AGENTS.md</text>
  <text x="230" y="549" text-anchor="middle" font-family="Arial,sans-serif" font-size="9" fill="#555">repo map</text>
  <rect x="390" y="510" width="140" height="45" rx="6" fill="#C8E6C9" stroke="#bbb" stroke-width="1"/>
  <text x="460" y="536" text-anchor="middle" font-family="Arial,sans-serif" font-size="12" font-weight="bold" fill="#2C3E50">Load Steering</text>
  <text x="460" y="549" text-anchor="middle" font-family="Arial,sans-serif" font-size="9" fill="#555">conventions</text>
  <rect x="620" y="510" width="140" height="45" rx="6" fill="#C8E6C9" stroke="#bbb" stroke-width="1"/>
  <text x="690" y="536" text-anchor="middle" font-family="Arial,sans-serif" font-size="12" font-weight="bold" fill="#2C3E50">Load Spec (JIT)</text>
  <text x="690" y="549" text-anchor="middle" font-family="Arial,sans-serif" font-size="9" fill="#555">task-relevant only</text>
  <rect x="850" y="510" width="140" height="45" rx="6" fill="#C8E6C9" stroke="#bbb" stroke-width="1"/>
  <text x="920" y="536" text-anchor="middle" font-family="Arial,sans-serif" font-size="12" font-weight="bold" fill="#2C3E50">Execute (bounded)</text>
  <text x="920" y="549" text-anchor="middle" font-family="Arial,sans-serif" font-size="9" fill="#555">step budget</text>
  <line x1="320" y1="532" x2="370" y2="532" stroke="#888" stroke-width="1.5" marker-end="url(#arr)"/>
  <line x1="550" y1="532" x2="600" y2="532" stroke="#888" stroke-width="1.5" marker-end="url(#arr)"/>
  <line x1="780" y1="532" x2="830" y2="532" stroke="#888" stroke-width="1.5" marker-end="url(#arr)"/>
  <line x1="235" y1="502" x2="235" y2="325" stroke="#888" stroke-width="1.5" marker-start="url(#arr-start)" marker-end="url(#arr)"/>
  <line x1="470" y1="502" x2="470" y2="325" stroke="#888" stroke-width="1.5" marker-start="url(#arr-start)" marker-end="url(#arr)"/>
  <line x1="700" y1="502" x2="700" y2="325" stroke="#888" stroke-width="1.5" marker-start="url(#arr-start)" marker-end="url(#arr)"/>
  <line x1="925" y1="502" x2="925" y2="325" stroke="#888" stroke-width="1.5" marker-start="url(#arr-start)" marker-end="url(#arr)"/>
  <rect x="390" y="345" width="160" height="44" rx="5" fill="#EAFAF1" stroke="#1E8449" stroke-width="1"/>
  <text x="397" y="359" font-family="Arial,sans-serif" font-size="10" font-weight="bold" fill="#1E8449">🔒 CI Checks</text>
  <text x="397" y="373" font-family="Arial,sans-serif" font-size="9" fill="#1E8449">Path scope enforcement</text>
  <text x="397" y="386" font-family="Arial,sans-serif" font-size="9" fill="#1E8449">Stale session notes check</text>
  <rect x="650" y="345" width="160" height="44" rx="5" fill="#EBF5FB" stroke="#2980B9" stroke-width="1"/>
  <text x="657" y="359" font-family="Arial,sans-serif" font-size="10" font-weight="bold" fill="#2C3E50">💡 Key Concept</text>
  <text x="657" y="373" font-family="Arial,sans-serif" font-size="9" fill="#2C3E50">&gt;50% context = degradation</text>
  <text x="657" y="386" font-family="Arial,sans-serif" font-size="9" fill="#2C3E50">Path scoping per agent</text>
  <rect x="850" y="500" width="220" height="60" rx="5" fill="#FDEDEC" stroke="#E74C3C" stroke-width="1"/>
  <text x="857" y="514" font-family="Arial,sans-serif" font-size="10" font-weight="bold" fill="#C0392B">❌ Anti-Patterns</text>
  <text x="857" y="530" font-family="Arial,sans-serif" font-size="9" fill="#C0392B">• Pasting files into chat</text>
  <text x="857" y="544" font-family="Arial,sans-serif" font-size="9" fill="#C0392B">• Loading full codebase for context</text>
  <text x="857" y="558" font-family="Arial,sans-serif" font-size="9" fill="#C0392B">• Relying on /compact mid-session</text>
  <text x="100" y="682" font-family="Arial,sans-serif" font-size="10" fill="#999">🔵 Maker    🟢 Agent    ⬜ Artifacts    🔷 Decision    ─ ─ → derives    🔴 Feedback</text>
</svg>