<svg xmlns="http://www.w3.org/2000/svg" viewBox="0 0 1100 700" width="1100" height="700">
  <defs>
    <marker id="arr" markerWidth="8" markerHeight="6" refX="7" refY="3" orient="auto">
      <polygon points="0 0, 8 3, 0 6" fill="#888"/>
    </marker>
    <marker id="arr-start" markerWidth="8" markerHeight="6" refX="1" refY="3" orient="auto">
      <polygon points="8 0, 0 3, 8 6" fill="#888"/>
    </marker>
    <marker id="arr-dash" markerWidth="8" markerHeight="6" refX="7" refY="3" orient="auto">
      <polygon points="0 0, 8 3, 0 6" fill="#aaa"/>
    </marker>
    <marker id="arr-red" markerWidth="10" markerHeight="7" refX="9" refY="3.5" orient="auto">
      <polygon points="0 0, 10 3.5, 0 7" fill="#E74C3C"/>
    </marker>
  </defs>
  <rect width="1100" height="700" fill="#FFFFFF"/>
  <rect x="150" y="12" width="220" height="40" rx="5" fill="#9E9E9E"/>
  <text x="260" y="40" text-anchor="middle" font-family="Arial,sans-serif" font-size="15" font-weight="bold" fill="white">Propose</text>
  <rect x="400" y="12" width="220" height="40" rx="5" fill="#9E9E9E"/>
  <text x="510" y="40" text-anchor="middle" font-family="Arial,sans-serif" font-size="15" font-weight="bold" fill="white">Refine</text>
  <rect x="820" y="12" width="220" height="40" rx="5" fill="#9E9E9E"/>
  <text x="930" y="40" text-anchor="middle" font-family="Arial,sans-serif" font-size="15" font-weight="bold" fill="white">Commit to Spec</text>
  <line x1="0" y1="65" x2="1100" y2="65" stroke="#BDBDBD" stroke-width="1.5" stroke-dasharray="8,5"/>
  <line x1="0" y1="200" x2="1100" y2="200" stroke="#BDBDBD" stroke-width="1.5" stroke-dasharray="8,5"/>
  <line x1="0" y1="410" x2="1100" y2="410" stroke="#BDBDBD" stroke-width="1.5" stroke-dasharray="8,5"/>
  <line x1="0" y1="660" x2="1100" y2="660" stroke="#BDBDBD" stroke-width="1.5" stroke-dasharray="8,5"/>
  <rect x="40" y="117" width="68" height="26" rx="4" fill="#4A90D9"/>
  <text x="74" y="133" text-anchor="middle" font-family="Arial,sans-serif" font-size="11" font-weight="bold" fill="white">Maker</text>
  <rect x="40" y="292" width="68" height="26" rx="4" fill="#757575"/>
  <text x="74" y="308" text-anchor="middle" font-family="Arial,sans-serif" font-size="11" font-weight="bold" fill="white">Artifacts</text>
  <rect x="40" y="522" width="68" height="26" rx="4" fill="#27AE60"/>
  <text x="74" y="538" text-anchor="middle" font-family="Arial,sans-serif" font-size="11" font-weight="bold" fill="white">Agent</text>
  <rect x="160" y="100" width="150" height="45" rx="6" fill="#D6EAF8" stroke="#bbb" stroke-width="1"/>
  <text x="235" y="126" text-anchor="middle" font-family="Arial,sans-serif" font-size="12" font-weight="bold" fill="#2C3E50">Identify Need</text>
  <text x="235" y="139" text-anchor="middle" font-family="Arial,sans-serif" font-size="9" fill="#555">feature / bug / refactor</text>
  <rect x="390" y="100" width="150" height="45" rx="6" fill="#D6EAF8" stroke="#bbb" stroke-width="1"/>
  <text x="465" y="126" text-anchor="middle" font-family="Arial,sans-serif" font-size="12" font-weight="bold" fill="#2C3E50">Stakeholder Review</text>
  <text x="465" y="139" text-anchor="middle" font-family="Arial,sans-serif" font-size="9" fill="#555">product + arch + QA</text>
  <polygon points="644,98 668,122 644,146 620,122" fill="#B3D4FC" stroke="#999" stroke-width="1"/>
  <text x="644" y="126" text-anchor="middle" font-family="Arial,sans-serif" font-size="10" font-weight="bold" fill="#2C3E50">Ready?</text>
  <rect x="695" y="112" width="34" height="18" rx="9" fill="#D5F5E3" stroke="#27AE60" stroke-width="1"/>
  <text x="712" y="125" text-anchor="middle" font-family="Arial,sans-serif" font-size="10" font-weight="bold" fill="#27AE60">Yes</text>
  <rect x="850" y="100" width="150" height="45" rx="6" fill="#D6EAF8" stroke="#bbb" stroke-width="1"/>
  <text x="925" y="126" text-anchor="middle" font-family="Arial,sans-serif" font-size="12" font-weight="bold" fill="#2C3E50">Approve</text>
  <text x="925" y="139" text-anchor="middle" font-family="Arial,sans-serif" font-size="9" fill="#555">transition to Phase 1</text>
  <line x1="315" y1="122" x2="365" y2="122" stroke="#888" stroke-width="1.5" marker-end="url(#arr)"/>
  <line x1="545" y1="122" x2="595" y2="122" stroke="#888" stroke-width="1.5" marker-end="url(#arr)"/>
  <line x1="670" y1="122" x2="693" y2="122" stroke="#888" stroke-width="1.5" marker-end="url(#arr)"/>
  <line x1="729" y1="122" x2="825" y2="122" stroke="#888" stroke-width="1.5" marker-end="url(#arr)"/>
  <rect x="629" y="158" width="34" height="18" rx="9" fill="#FDEDEC" stroke="#E74C3C" stroke-width="1"/>
  <text x="646" y="171" text-anchor="middle" font-family="Arial,sans-serif" font-size="10" font-weight="bold" fill="#E74C3C">No</text>
  <path d="M 644,176 L 644,195 L 465,195 L 465,150" fill="none" stroke="#E74C3C" stroke-width="2" marker-end="url(#arr-red)"/>
  <text x="550" y="192" font-family="Arial,sans-serif" font-size="9" fill="#E74C3C">Needs more context</text>
  <rect x="160" y="230" width="150" height="80" rx="4" fill="white" stroke="#aaa" stroke-width="1"/>
  <text x="235" y="245" text-anchor="middle" font-family="Arial,sans-serif" font-size="10" font-weight="bold" fill="#2C3E50">Proposal</text>
  <line x1="165" y1="250" x2="305" y2="250" stroke="#ddd" stroke-width="1"/>
  <text x="167" y="263" font-family="Arial,sans-serif" font-size="9" fill="#555">proposal.md (what &amp; why)</text>
  <text x="167" y="276" font-family="Arial,sans-serif" font-size="9" fill="#555">spec-deltas/ (ADD/MOD/DEL)</text>
  <text x="167" y="289" font-family="Arial,sans-serif" font-size="9" fill="#555">tasks.md (high-level)</text>
  <text x="167" y="302" font-family="Arial,sans-serif" font-size="9" fill="#555">Backlog link</text>
  <rect x="390" y="230" width="150" height="80" rx="4" fill="white" stroke="#aaa" stroke-width="1"/>
  <text x="465" y="245" text-anchor="middle" font-family="Arial,sans-serif" font-size="10" font-weight="bold" fill="#2C3E50">Stakeholder Input</text>
  <line x1="395" y1="250" x2="535" y2="250" stroke="#ddd" stroke-width="1"/>
  <text x="397" y="263" font-family="Arial,sans-serif" font-size="9" fill="#555">Product: acceptance criteria</text>
  <text x="397" y="276" font-family="Arial,sans-serif" font-size="9" fill="#555">Arch: system boundaries</text>
  <text x="397" y="289" font-family="Arial,sans-serif" font-size="9" fill="#555">QA: testability, edge cases</text>
  <text x="397" y="302" font-family="Arial,sans-serif" font-size="9" fill="#555">Constraints captured</text>
  <rect x="620" y="230" width="150" height="70" rx="4" fill="white" stroke="#aaa" stroke-width="1"/>
  <text x="695" y="245" text-anchor="middle" font-family="Arial,sans-serif" font-size="10" font-weight="bold" fill="#2C3E50">Validated Proposal</text>
  <line x1="625" y1="250" x2="765" y2="250" stroke="#ddd" stroke-width="1"/>
  <text x="627" y="263" font-family="Arial,sans-serif" font-size="9" fill="#555">openspec validate passes</text>
  <text x="627" y="276" font-family="Arial,sans-serif" font-size="9" fill="#555">All deltas structured</text>
  <text x="627" y="289" font-family="Arial,sans-serif" font-size="9" fill="#555">Sign-off recorded</text>
  <rect x="850" y="230" width="150" height="70" rx="4" fill="white" stroke="#aaa" stroke-width="1"/>
  <text x="925" y="245" text-anchor="middle" font-family="Arial,sans-serif" font-size="10" font-weight="bold" fill="#2C3E50">Feeds Phase 1</text>
  <line x1="855" y1="250" x2="995" y2="250" stroke="#ddd" stroke-width="1"/>
  <text x="857" y="263" font-family="Arial,sans-serif" font-size="9" fill="#555">→ outcome.md</text>
  <text x="857" y="276" font-family="Arial,sans-serif" font-size="9" fill="#555">→ invariants.md</text>
  <text x="857" y="289" font-family="Arial,sans-serif" font-size="9" fill="#555">→ product-spec.md</text>
  <line x1="315" y1="265" x2="365" y2="265" stroke="#aaa" stroke-width="1" stroke-dasharray="5,4" marker-end="url(#arr-dash)"/>
  <line x1="545" y1="265" x2="595" y2="265" stroke="#aaa" stroke-width="1" stroke-dasharray="5,4" marker-end="url(#arr-dash)"/>
  <line x1="775" y1="265" x2="825" y2="265" stroke="#aaa" stroke-width="1" stroke-dasharray="5,4" marker-end="url(#arr-dash)"/>
  <line x1="465" y1="222" x2="465" y2="153" stroke="#888" stroke-width="1.5" marker-start="url(#arr-start)" marker-end="url(#arr)"/>
  <rect x="160" y="510" width="140" height="45" rx="6" fill="#C8E6C9" stroke="#bbb" stroke-width="1"/>
  <text x="230" y="536" text-anchor="middle" font-family="Arial,sans-serif" font-size="12" font-weight="bold" fill="#2C3E50">Pull Context</text>
  <text x="230" y="549" text-anchor="middle" font-family="Arial,sans-serif" font-size="9" fill="#555">backlog + wiki</text>
  <rect x="390" y="510" width="140" height="45" rx="6" fill="#C8E6C9" stroke="#bbb" stroke-width="1"/>
  <text x="460" y="536" text-anchor="middle" font-family="Arial,sans-serif" font-size="12" font-weight="bold" fill="#2C3E50">Scaffold Proposal</text>
  <text x="460" y="549" text-anchor="middle" font-family="Arial,sans-serif" font-size="9" fill="#555">structure + deltas</text>
  <rect x="620" y="510" width="140" height="45" rx="6" fill="#C8E6C9" stroke="#bbb" stroke-width="1"/>
  <text x="690" y="536" text-anchor="middle" font-family="Arial,sans-serif" font-size="12" font-weight="bold" fill="#2C3E50">Validate</text>
  <text x="690" y="549" text-anchor="middle" font-family="Arial,sans-serif" font-size="9" fill="#555">openspec validate</text>
  <rect x="850" y="510" width="140" height="45" rx="6" fill="#C8E6C9" stroke="#bbb" stroke-width="1"/>
  <text x="920" y="536" text-anchor="middle" font-family="Arial,sans-serif" font-size="12" font-weight="bold" fill="#2C3E50">Update Backlog</text>
  <text x="920" y="549" text-anchor="middle" font-family="Arial,sans-serif" font-size="9" fill="#555">status + spec links</text>
  <line x1="305" y1="532" x2="365" y2="532" stroke="#888" stroke-width="1.5" marker-end="url(#arr)"/>
  <line x1="535" y1="532" x2="595" y2="532" stroke="#888" stroke-width="1.5" marker-end="url(#arr)"/>
  <line x1="765" y1="532" x2="825" y2="532" stroke="#888" stroke-width="1.5" marker-end="url(#arr)"/>
  <line x1="235" y1="502" x2="235" y2="312" stroke="#888" stroke-width="1.5" marker-end="url(#arr)"/>
  <line x1="465" y1="502" x2="465" y2="312" stroke="#888" stroke-width="1.5" marker-end="url(#arr)"/>
  <line x1="695" y1="502" x2="695" y2="302" stroke="#888" stroke-width="1.5" marker-end="url(#arr)"/>
  <line x1="925" y1="502" x2="925" y2="302" stroke="#888" stroke-width="1.5" marker-end="url(#arr)"/>
  <rect x="620" y="420" width="220" height="74" rx="5" fill="#FDEDEC" stroke="#E74C3C" stroke-width="1"/>
  <text x="627" y="434" font-family="Arial,sans-serif" font-size="10" font-weight="bold" fill="#C0392B">❌ Anti-Patterns</text>
  <text x="627" y="450" font-family="Arial,sans-serif" font-size="9" fill="#C0392B">• Jumping straight to code</text>
  <text x="627" y="464" font-family="Arial,sans-serif" font-size="9" fill="#C0392B">• Requirements in Slack only</text>
  <text x="627" y="478" font-family="Arial,sans-serif" font-size="9" fill="#C0392B">• Skipping stakeholder input</text>
  <text x="627" y="492" font-family="Arial,sans-serif" font-size="9" fill="#C0392B">• Spec without proposal</text>
  <text x="100" y="682" font-family="Arial,sans-serif" font-size="10" fill="#999">🔵 Maker    🟢 Agent    ⬜ Artifacts    🔷 Decision    ─ ─ → derives    🔴 Feedback</text>
</svg>